<?xml version="1.0" encoding="iso-8859-1"?>
<!-- Generator: Adobe Illustrator 19.0.0, SVG Export Plug-In . SVG Version: 6.00 Build 0)  -->
<svg version="1.1" id="Capa_1" xmlns="http://www.w3.org/2000/svg" xmlns:xlink="http://www.w3.org/1999/xlink" x="0px" y="0px"
	 viewBox="0 0 512 512" style="enable-background:new 0 0 512 512;" xml:space="preserve">
<g>
	<g>
		<path d="M346.5,0v105c0,8.291-6.709,15-15,15c-8.291,0-15-6.709-15-15V0h-150v135c0,8.276,6.724,15,15,15h180
			c8.276,0,15-6.724,15-15V0H346.5z"/>
	</g>
</g>
<g>
	<g>
		<path d="M361.5,271h-210c-8.276,0-15,6.724-15,15v15h240v-15C376.5,277.724,369.776,271,361.5,271z"/>
	</g>
</g>
<g>
	<g>
		<path d="M492.105,34.395l-30-30C459.293,1.582,455.484,0,451.5,0h-45v135c0,24.814-20.186,45-45,45h-180
			c-24.814,0-45-20.186-45-45V0h-2.578c-12.012,0-23.32,4.688-31.816,13.184L28.684,85.605C20.188,94.102,15.5,105.41,15.5,117.422
			V467c0,24.814,20.186,45,45,45h46V286c0-24.814,20.186-45,45-45h210c24.814,0,45,20.186,45,45v226h45c24.814,0,45-20.186,45-45V45
			C496.5,41.016,494.918,37.207,492.105,34.395z"/>
	</g>
</g>
<g>
	<g>
		<rect x="136.5" y="331" width="240" height="181"/>
	</g>
</g>
<g>
</g>
<g>
</g>
<g>
</g>
<g>
</g>
<g>
</g>
<g>
</g>
<g>
</g>
<g>
</g>
<g>
</g>
<g>
</g>
<g>
</g>
<g>
</g>
<g>
</g>
<g>
</g>
<g>
</g>
</svg>
