<svg id="Layer_1" enable-background="new 0 0 480 480" height="512" viewBox="0 0 480 480" width="512" xmlns="http://www.w3.org/2000/svg"><g><path d="m402 418.763v53.23c0 4.418-3.582 8-8 8h-308c-4.418 0-8-3.582-8-8v-53.23c0-26.46 16.784-50.067 41.79-58.71 36.948-12.771 35.124-12.115 35.024-12.08 3.844-1.325 8.109.425 9.822 4.112 13.068 28.134 41.709 48.908 75.555 48.908 33.435 0 62.334-20.431 75.516-48.79 1.713-3.686 5.979-5.434 9.821-4.109 3.546 1.223-12.835-4.463 34.683 11.959 25.005 8.642 41.789 32.24 41.789 58.71z"/><path d="m300.061 334.721c2.384 2.307 3.219 5.812 1.9 8.855-10.563 24.359-34.733 41.416-61.771 41.416-27.769 0-51.7-17.62-61.945-41.702-1.281-3.01-.46-6.461 1.879-8.749 2.129-2.082 4.046-4.363 5.729-6.808 2.125-3.088 6.052-4.349 9.545-2.988 28.611 11.152 60.557 11.167 89.207-.001 3.487-1.359 7.414-.11 9.534 2.974 1.733 2.522 3.716 4.869 5.922 7.003z"/><path d="m337.95 146.063c-52.036 6.906-105.059-6.44-148.08-39.42-4.265-3.268-10.477-1.469-12.35 3.52-6.61 17.445-20.179 30.873-38.71 36.13-3.44.98-5.81 4.12-5.81 7.7v56.12c0 59 48 107 107 107s107-48 107-107v-56.12c0-4.837-4.25-8.562-9.05-7.93zm-130.95 44.929v-14c0-4.418 3.582-8 8-8s8 3.582 8 8v14c0 4.418-3.582 8-8 8s-8-3.581-8-8zm57.749 57.749c-13.677 13.678-35.818 13.68-49.498 0-3.125-3.125-3.124-8.189 0-11.314 3.125-3.123 8.189-3.124 11.314 0 7.423 7.424 19.444 7.427 26.869 0 3.125-3.124 8.19-3.125 11.313 0 3.126 3.125 3.126 8.19.002 11.314zm8.251-57.749c0 4.418-3.582 8-8 8s-8-3.582-8-8v-14c0-4.418 3.582-8 8-8s8 3.582 8 8z"/><path d="m372.075 87.253c.171 103.164.073 95.195-.164 97.775-.516 5.615-8.911 5.149-8.911-.49v-30.545c0-14.584-12.843-25.689-27.16-23.79-47.714 6.331-96.482-5.784-136.24-36.26-12.744-9.78-31.352-4.481-37.05 10.56-2.22 5.89-6.7 14.19-15.39 20.35-10.223 7.245-15.668 4.734-23.09 12.13-4.42 4.39-7.07 10.46-7.07 17.01v29.626c0 5.752-8.658 6.059-8.925.313-.005-.118 0-98.84 0-99.029.005-17.45 12.895-31.95 29.625-34.56 14.177-30.28 44.737-50.335 79.25-50.335h95.05c16.713.021 28.384 16.817 22.43 32.545l-2.75 7.23 5.55 1.61c20.46 5.95 34.81 24.809 34.845 45.86z"/><path d="m436.787 318.025c-9.464-9.501-22.504-15.033-36.044-15.033-4.418 0-8 3.582-8 8s3.582 8 8 8c8.373 0 16.465 3.091 22.73 8.477-17.341 20.691-2.612 52.523 24.528 52.523 17.645 0 32-14.355 32-32-.001-22.228-22.296-37.821-43.214-29.967z"/><path d="m448 185.992c-14.883 0-27.426 10.214-30.987 24h-23.013c-4.418 0-8 3.582-8 8s3.582 8 8 8h23.013c3.561 13.786 16.104 24 30.987 24 17.645 0 32-14.355 32-32s-14.355-32-32-32z"/><path d="m400.742 132.992c13.54 0 26.58-5.532 36.044-15.033 20.889 7.844 43.214-7.711 43.214-29.967 0-17.645-14.355-32-32-32-27.129 0-41.874 31.827-24.528 52.523-6.266 5.386-14.357 8.477-22.73 8.477-4.418 0-8 3.582-8 8s3.582 8 8 8z"/><path d="m43.214 117.96c9.464 9.501 22.504 15.033 36.044 15.033 4.418 0 8-3.582 8-8s-3.582-8-8-8c-8.373 0-16.464-3.091-22.73-8.477 17.341-20.691 2.614-52.524-24.528-52.524-17.645 0-32 14.355-32 32 0 22.231 22.298 37.821 43.214 29.968z"/><path d="m79.258 302.992c-13.541 0-26.58 5.532-36.044 15.033-20.889-7.842-43.214 7.71-43.214 29.967 0 17.645 14.355 32 32 32 27.134 0 41.872-31.829 24.528-52.523 6.266-5.386 14.357-8.477 22.73-8.477 4.418 0 8-3.582 8-8s-3.582-8-8-8z"/><path d="m86 209.992h-23.013c-3.561-13.786-16.104-24-30.987-24-17.645 0-32 14.355-32 32s14.355 32 32 32c14.884 0 27.426-10.214 30.987-24h23.013c4.418 0 8-3.582 8-8s-3.582-8-8-8z"/></g></svg>